<svg width="96" height="96" viewBox="0 0 96 96" fill="none" xmlns="http://www.w3.org/2000/svg">
<rect width="96" height="96" rx="48" fill="black"/>
<path fill-rule="evenodd" clip-rule="evenodd" d="M31.7776 17.0321C31.6658 17.0952 31.5675 17.1796 31.4881 17.2805C31.3393 17.4671 31.3386 17.4769 31.3754 19.1224C31.3982 20.1322 31.4658 21.2284 31.549 21.9352C31.6242 22.5722 31.7595 23.4819 31.8497 23.9566C31.94 24.4314 32.1162 25.1909 32.2407 25.6444C32.3651 26.0978 32.5907 26.7816 32.7419 27.1637C32.893 27.5459 33.1373 28.082 33.2836 28.355C33.4581 28.6738 33.6489 28.9832 33.8552 29.2822C34.0537 29.5564 34.267 29.8195 34.4943 30.0702C34.7626 30.3412 35.0504 30.5922 35.3553 30.8213C35.6709 31.0538 36.0027 31.2635 36.348 31.4489C36.604 31.5778 37.0058 31.7557 37.2412 31.8443C37.6105 31.9718 37.986 32.0806 38.3663 32.1701C38.9246 32.2883 39.4888 32.3761 40.0566 32.4332C40.6831 32.4977 41.3135 32.5166 41.9428 32.49C42.4342 32.4672 43.1843 32.4072 43.6093 32.3567C44.0343 32.3062 44.4539 32.2469 44.5411 32.225C44.6797 32.1901 44.7416 32.2462 45.0331 32.6693C45.2166 32.9357 45.6197 33.5746 45.9286 34.0893C46.2148 34.5601 46.4751 35.0461 46.7081 35.5454C46.8277 35.8315 47.0275 36.3634 47.1521 36.7274C47.2766 37.0914 47.4811 37.8062 47.6066 38.3158C47.7322 38.8254 47.9083 39.6594 47.9984 40.169C48.0885 40.6785 48.2208 41.5571 48.2926 42.1213C48.3644 42.6856 48.468 43.6684 48.5223 44.3054C48.5766 44.9424 48.6565 46.2082 48.6993 47.1182C48.7495 48.1832 48.7641 50.0111 48.7407 52.2475C48.7206 54.1585 48.6685 56.2881 48.6248 56.9797C48.5811 57.6714 48.5386 58.2452 48.5302 58.2548C48.5218 58.2643 48.0432 58.2117 47.4667 58.1377C46.8902 58.0638 46.128 57.9439 45.773 57.8716C45.3574 57.7826 44.9472 57.6702 44.5444 57.5348C44.2236 57.422 43.6633 57.1893 43.2993 57.0178C42.9353 56.8463 41.8035 56.2574 40.7843 55.7093C39.7651 55.1613 38.5647 54.5293 38.1167 54.3051C37.6688 54.081 36.8704 53.7037 36.3426 53.4676C35.8149 53.2316 34.9455 52.8881 34.4104 52.7051C33.8754 52.522 33.0358 52.2702 32.5444 52.1453C32.053 52.0203 31.2637 51.8583 30.7902 51.785C30.3167 51.7117 29.5426 51.633 29.0694 51.6096C28.4735 51.5865 27.8768 51.5991 27.2824 51.6472C26.7728 51.6913 26.0431 51.7872 25.6609 51.8602C25.0982 51.9821 24.5422 52.1331 23.9951 52.3127C23.382 52.52 22.7802 52.7596 22.1923 53.0304C21.7347 53.2492 21.0995 53.5842 20.7806 53.7745C20.4617 53.9648 19.9624 54.2843 19.6712 54.4842C19.38 54.684 18.8588 55.0731 18.513 55.3487C18.1671 55.6244 17.5205 56.204 17.0761 56.6363C16.599 57.0999 16.2126 57.5365 16.1329 57.7013C16.0208 57.9384 16 58.1114 16 58.8226C16 59.4066 16.0292 59.7343 16.0956 59.893C16.159 60.041 16.2739 60.161 16.4191 60.2306C16.562 60.3028 16.7249 60.3255 16.8821 60.2952C17.0401 60.26 17.1822 60.1741 17.2867 60.0505C17.4477 59.8592 17.4561 59.8098 17.4561 59.0648V58.2806L18.2669 57.5206C18.7128 57.1026 19.3116 56.5764 19.5975 56.3512C19.8835 56.1261 20.4345 55.7305 20.8219 55.4721C21.2094 55.2138 21.9137 54.8022 22.3869 54.5575C22.8602 54.3128 23.4855 54.0216 23.7768 53.9106C24.0681 53.7996 24.4999 53.6501 24.7365 53.5782C24.973 53.5062 25.3755 53.3992 25.63 53.3401C25.8845 53.2809 26.4346 53.1897 26.8519 53.1376C27.3794 53.0786 27.9095 53.0469 28.4403 53.0426C28.8967 53.0426 29.5381 53.0743 29.8658 53.1127C30.1934 53.151 30.7861 53.2424 31.1829 53.3154C31.5797 53.3885 32.2647 53.5517 32.7051 53.6781C33.1456 53.8046 33.759 53.9998 34.0685 54.1119C34.378 54.2241 34.914 54.4351 35.2598 54.5805C35.6057 54.726 36.4251 55.1089 37.0799 55.4316C37.7347 55.7542 39.2242 56.5249 40.3891 57.1444C41.554 57.7638 42.8561 58.4184 43.2827 58.5991C43.7366 58.7895 44.2006 58.9549 44.6727 59.0944C45.011 59.1861 45.6298 59.3199 46.0492 59.3911C46.4686 59.4622 47.3773 59.5813 48.0678 59.6551C48.7584 59.7289 49.9048 59.8196 50.6146 59.8566C51.3245 59.8935 52.2329 59.943 52.6333 59.9662C53.0338 59.9894 54.8207 60.0295 56.6044 60.0553C59.3596 60.095 59.8982 60.1179 60.1851 60.212C60.4289 60.3014 60.6619 60.4177 60.88 60.5587C61.0934 60.7042 61.2856 60.8786 61.4511 61.0769C61.5818 61.255 61.6911 61.4478 61.7769 61.6513C61.8576 61.8619 61.8905 62.1581 61.8938 62.7053C61.8975 63.3113 61.8715 63.5395 61.7661 63.8248C61.6628 64.0713 61.5214 64.3 61.347 64.5025C61.1472 64.717 60.9093 64.8924 60.6453 65.0199C60.365 65.1447 60.07 65.2333 59.7674 65.2838C59.5067 65.3214 57.6611 65.3502 55.5387 65.3512C53.4673 65.3521 50.8642 65.382 49.754 65.4176C48.6437 65.4532 47.4524 65.4992 47.1066 65.52C46.7607 65.5408 46.0757 65.5875 45.5843 65.624C45.0929 65.6605 44.1696 65.7504 43.5326 65.8237C42.8956 65.897 41.8536 66.06 41.2161 66.186C40.5786 66.3119 39.8047 66.4918 39.4953 66.5858C39.2409 66.6594 38.9913 66.7484 38.7477 66.8522C38.6208 66.9292 38.5134 67.0343 38.4336 67.1595C38.3679 67.2608 38.3238 67.3745 38.3042 67.4937C38.3189 67.6117 38.3536 67.7263 38.4067 67.8327C38.4835 67.9804 38.6088 68.0971 38.7616 68.1631C39.0096 68.2749 39.0248 68.2734 39.6351 68.0786C39.9768 67.9696 40.6107 67.8012 41.0439 67.7044C41.4772 67.6077 42.2321 67.4705 42.7217 67.3997C43.2112 67.3289 44.0707 67.2269 44.6316 67.1732C45.1924 67.1194 46.3881 67.0281 47.2888 66.9701C48.4164 66.8975 50.6492 66.8489 54.4528 66.8143C59.7715 66.7659 59.9982 66.7588 60.4851 66.6255C60.8022 66.5346 61.1114 66.4176 61.4093 66.2758C61.9742 65.962 62.4581 65.5208 62.8227 64.9872C62.936 64.7831 63.0338 64.5708 63.1154 64.3521C63.1965 64.1207 63.2635 63.8847 63.3159 63.6452C63.3587 63.4197 63.3826 63.1911 63.3875 62.9617V62.6289L64.659 61.0627C65.3583 60.201 66.5562 58.7364 67.3209 57.8082C68.0856 56.88 69.3374 55.3759 70.1025 54.4659C70.8676 53.5559 71.8979 52.3496 72.3922 51.7854C72.8865 51.2212 73.5324 50.505 73.8269 50.1941C74.1902 49.8106 74.4807 49.5708 74.729 49.4494C75.0902 49.2971 75.4627 49.1733 75.8431 49.0791C76.2547 48.974 76.9307 48.8392 77.3452 48.7795C77.6009 48.7362 77.8588 48.7062 78.1177 48.6899C78.0616 48.8888 77.9904 49.0831 77.9047 49.2711C77.7771 49.5803 77.2021 50.9353 76.6266 52.2821C76.0511 53.6289 75.1719 55.669 74.672 56.8157C74.172 57.9624 73.3313 59.8535 72.8051 61.0184C72.2788 62.1833 71.3911 64.0597 70.8332 65.1881C70.2754 66.3165 69.6704 67.4631 69.4884 67.7361C69.3062 68.0109 69.087 68.2592 68.8369 68.474C68.6607 68.6068 68.248 68.8781 67.9208 69.0769C67.5937 69.2758 66.8074 69.7131 66.1747 70.0489C65.5419 70.3847 64.2771 71.0172 63.3624 71.4558C62.4477 71.8945 61.0151 72.5657 60.1778 72.9469C59.3406 73.328 58.2894 73.8009 57.8415 73.9965C57.3937 74.1921 56.5153 74.5437 55.8892 74.7778C55.263 75.012 54.3152 75.3384 53.7828 75.5032C53.2504 75.668 52.4612 75.8916 52.0286 75.9999C51.5961 76.1081 50.9151 76.263 50.5147 76.3427C49.9749 76.4506 49.4622 76.4959 48.5292 76.5181C47.593 76.5405 47.0978 76.5217 46.5908 76.4445C46.2165 76.3875 45.5613 76.2635 45.1348 76.1689C44.7083 76.0743 43.7941 75.8084 43.1021 75.578C42.41 75.3476 41.3706 74.961 40.7912 74.7192C40.2118 74.4774 39.1549 74.0168 38.442 73.6954C37.7291 73.374 36.6098 72.8582 35.9545 72.5496C35.2992 72.2409 34.2419 71.7581 33.6049 71.4763C32.9679 71.1945 32.0744 70.8154 31.6193 70.6335C31.1642 70.4516 30.2709 70.1259 29.6337 69.9097C28.9966 69.6934 27.8501 69.3262 27.0857 69.0937C26.3212 68.8613 25.1746 68.5334 24.5376 68.3652C23.9006 68.1971 22.605 67.8835 21.6587 67.6682C20.7123 67.453 19.3795 67.1808 18.6969 67.0634L17.4565 66.8504V66.33C17.4715 66.0877 17.4374 65.8447 17.3562 65.6158C17.3031 65.5114 17.225 65.4216 17.1289 65.3545C16.9953 65.306 16.8539 65.2829 16.7118 65.2863C16.6205 65.2758 16.528 65.2889 16.4432 65.3244C16.3585 65.3599 16.2842 65.4166 16.2277 65.489C16.0345 65.6905 16.0332 65.6972 16.0119 66.6042C15.9956 67.3018 16.0138 67.5727 16.0891 67.753C16.1441 67.8842 16.2311 67.9995 16.3421 68.0885C16.427 68.1431 16.9135 68.2486 17.4231 68.3229C17.9327 68.3972 18.7965 68.5467 19.3424 68.6553C19.8884 68.7639 20.9308 68.9895 21.6589 69.1565C22.387 69.3235 23.5485 69.6111 24.2401 69.7955C24.9316 69.98 26.0337 70.2942 26.6889 70.4932C27.344 70.6921 28.4311 71.0427 29.1046 71.2724C29.7781 71.5021 30.7013 71.839 31.1563 72.0213C31.6114 72.2036 32.5197 72.5915 33.175 72.8833C33.8303 73.1752 34.9918 73.7033 35.7561 74.0568C36.5204 74.4102 37.7776 74.9788 38.5495 75.32C39.3215 75.6612 40.4233 76.1305 40.9983 76.3631C41.5733 76.5956 42.3712 76.8915 42.7717 77.0204C43.1721 77.1493 43.8422 77.3462 44.2608 77.4564C44.6794 77.5667 45.3684 77.7196 45.7919 77.7947C46.2155 77.8699 46.8986 77.9556 47.3099 77.9853C47.8387 78.0154 48.3688 78.0164 48.8977 77.9885C49.3595 77.9605 50.121 77.8732 50.5892 77.7945C51.0574 77.7158 51.903 77.5335 52.4672 77.3893C53.0314 77.2451 54.1513 76.9066 54.9558 76.6375C55.7604 76.3684 56.8018 75.9947 57.2703 75.8078C57.7388 75.6208 58.7185 75.1993 59.4476 74.8708C60.1767 74.5423 61.3243 74.0205 61.9977 73.7112C62.671 73.4018 64.056 72.7362 65.0752 72.232C66.0944 71.7279 67.4146 71.0372 68.009 70.6973C68.6035 70.3573 69.3359 69.8984 69.6369 69.6774C70.0068 69.4275 70.3187 69.1012 70.5516 68.7205C70.7537 68.4152 71.1637 67.7063 71.4629 67.1451C71.7621 66.5839 72.3343 65.4373 72.7348 64.5971C73.1352 63.7568 73.832 62.2555 74.2831 61.261C74.7341 60.2665 75.6061 58.3007 76.2205 56.8929C76.835 55.4851 77.6865 53.5139 78.1125 52.5129C78.5385 51.5119 79.138 50.0921 79.4436 49.358C79.798 48.506 79.9991 47.935 79.9991 47.7793C79.9991 47.5886 79.9483 47.4847 79.7652 47.3016L79.5313 47.0677L78.9549 47.1127C78.6376 47.1377 78.0803 47.2028 77.7162 47.2579C77.3521 47.313 76.7264 47.4184 76.3263 47.4921C75.8686 47.5799 75.4158 47.6913 74.9696 47.8259C74.6257 47.9348 74.29 48.0679 73.9649 48.2242C73.7068 48.3605 73.3326 48.6849 72.7703 49.2598C72.3202 49.7201 71.5359 50.5734 71.0277 51.1558C70.5195 51.7382 69.626 52.7806 69.0414 53.4724C68.4567 54.1642 67.3393 55.5042 66.558 56.4507C65.7766 57.3972 64.6796 58.7374 64.1203 59.429C63.561 60.1207 63.0817 60.7111 63.0553 60.741C63.0289 60.771 62.9384 60.6816 62.8539 60.5424C62.7373 60.3579 62.6107 60.1799 62.4745 60.0093C62.3065 59.8146 62.1174 59.6391 61.9107 59.4862C61.6763 59.3244 61.4297 59.1811 61.1732 59.0574C60.9147 58.9407 60.6485 58.8415 60.3767 58.7606C60.0414 58.667 59.4395 58.6414 56.505 58.5967C54.594 58.5675 52.4644 58.5121 51.7728 58.4738C51.0811 58.4354 50.444 58.4037 50.3569 58.4036H50.1984L50.2429 57.7914C50.2679 57.4547 50.3627 56.5384 50.4546 55.7562C50.5466 54.974 50.723 53.7368 50.8464 53.0077C50.9699 52.2786 51.1616 51.2752 51.2725 50.7774C51.3833 50.2796 51.5648 49.5362 51.6762 49.1246C51.7876 48.713 52.0112 47.9782 52.1731 47.4918C52.335 47.0054 52.6042 46.2837 52.7711 45.888L53.0749 45.1686L53.2598 45.2643C53.3615 45.3169 53.8335 45.4931 54.3087 45.6559C54.7838 45.8186 55.524 46.0345 55.9546 46.1357C56.6543 46.3004 56.862 46.3201 57.928 46.3221C58.7271 46.3237 59.2391 46.2944 59.4833 46.2332C60.0357 46.093 60.5619 45.8645 61.0415 45.5566C61.3513 45.3432 61.6383 45.0986 61.898 44.8265C62.1375 44.5737 62.3578 44.3034 62.5571 44.018C62.6769 43.83 62.8866 43.4541 63.0233 43.183C63.16 42.9118 63.3742 42.4061 63.4995 42.0614C63.6248 41.7168 63.8277 41.0453 63.9514 40.5704C64.0751 40.0955 64.2351 39.3936 64.3071 39.0115C64.3792 38.6293 64.4853 37.9699 64.5433 37.5462C64.6013 37.1226 64.6943 36.3483 64.7501 35.8254C64.8058 35.3025 64.869 34.1391 64.8906 33.2398C64.9255 31.7916 64.9175 31.5858 64.8212 31.4386C64.7562 31.3422 64.6718 31.2604 64.5734 31.1983C64.4884 31.1528 64.099 31.1269 63.5724 31.1316C63.0983 31.1359 62.2568 31.1828 61.7027 31.2359C61.1486 31.289 60.1767 31.4198 59.5433 31.5266C58.91 31.6333 58.0791 31.7988 57.6968 31.8943C57.3145 31.9898 56.7195 32.1587 56.3732 32.2702C55.8425 32.459 55.3232 32.6784 54.8179 32.9273C54.3388 33.1594 53.8775 33.4263 53.4376 33.726C53.1232 33.9769 52.8319 34.2553 52.567 34.558C52.2892 34.8984 52.047 35.2663 51.8442 35.6561C51.6477 36.0656 51.4862 36.4909 51.3614 36.9275C51.195 37.5504 51.1845 37.6773 51.1827 39.0785C51.1811 40.3565 51.2022 40.6805 51.3312 41.3619C51.414 41.7987 51.5898 42.5433 51.7219 43.0165C51.824 43.3528 51.9037 43.6955 51.9606 44.0423C51.9598 44.1332 51.7875 44.5801 51.5778 45.035C51.3681 45.49 51.0097 46.4282 50.7815 47.1198C50.5534 47.8115 50.3384 48.4816 50.3035 48.609C50.2527 48.7958 50.2312 48.6418 50.193 47.8147C50.167 47.2509 50.1165 46.2975 50.0809 45.6972C50.0453 45.0969 49.9721 44.1435 49.918 43.5797C49.8639 43.0158 49.7589 42.1071 49.6839 41.561C49.609 41.015 49.4737 40.1662 49.3832 39.6748C49.2928 39.1834 49.1302 38.4208 49.0225 37.9803C48.9147 37.5397 48.7225 36.8584 48.5954 36.4662C48.4682 36.074 48.2255 35.4243 48.0557 35.0222C47.7835 34.4258 47.4769 33.8457 47.1374 33.2849C46.802 32.7313 46.405 32.1036 46.2553 31.8898L45.9829 31.5014L46.3538 30.641C46.5578 30.1677 46.8126 29.5125 46.9201 29.1849C47.0276 28.8572 47.1884 28.3024 47.2773 27.9518C47.3663 27.6013 47.4831 27.0056 47.5367 26.6282C47.5951 26.1882 47.6281 25.7451 47.6356 25.3013C47.6342 24.9142 47.6109 24.5275 47.5659 24.1431C47.5047 23.7657 47.4151 23.3935 47.2978 23.0297C47.1761 22.6721 47.0232 22.3259 46.8408 21.9951C46.6633 21.7046 46.4666 21.4263 46.2519 21.1621C45.9944 20.8738 45.7114 20.6094 45.4063 20.3721C45.1224 20.1543 44.7055 19.8653 44.48 19.7298C44.2544 19.5944 43.8225 19.3699 43.5203 19.2308C43.2181 19.0917 42.6729 18.8699 42.3089 18.738C41.9449 18.606 41.2777 18.3928 40.8264 18.2641C40.3751 18.1354 39.422 17.9133 38.7089 17.7704C37.9958 17.6276 36.9627 17.4492 36.4139 17.3739C35.8651 17.2986 34.9866 17.1943 34.4616 17.1422C33.9366 17.0901 33.1496 17.0308 32.7127 17.0104C32.2757 16.99 31.8556 17.0006 31.7787 17.0342M32.8327 19.5715C32.8555 20.163 32.9188 21.0639 32.9733 21.5736C33.0278 22.0833 33.1332 22.8575 33.2073 23.2944C33.2815 23.7313 33.4192 24.3985 33.5133 24.7773C33.6074 25.1561 33.8015 25.8073 33.9458 26.2242C34.0809 26.6202 34.2364 27.0089 34.4116 27.3888C34.5243 27.6122 34.741 27.9886 34.894 28.2251C35.085 28.5109 35.2958 28.783 35.5246 29.0395C35.7564 29.2847 36.0093 29.5091 36.2804 29.7101C36.5413 29.891 36.8133 30.0553 37.0948 30.2021C37.3861 30.3422 37.6853 30.4653 37.9908 30.5708C38.399 30.6939 38.8144 30.792 39.2346 30.8644C39.6519 30.9363 40.291 31.0136 40.6551 31.036C41.2354 31.0549 41.8163 31.0443 42.3955 31.0043C42.7979 30.9855 43.199 30.9458 43.5972 30.8854C43.7032 30.8455 43.6314 30.7328 43.0825 30.0779C42.7317 29.6593 42.0568 28.9188 41.583 28.4324C41.1091 27.946 40.3936 27.2589 39.9933 26.9057C39.593 26.5525 39.0568 26.0998 38.802 25.9C38.5471 25.7001 38.1898 25.4364 38.0077 25.3155C37.8292 25.1967 37.6582 25.0669 37.4956 24.927C37.389 24.8229 37.3126 24.6918 37.2747 24.5476C37.2506 24.406 37.2735 24.2604 37.3398 24.133C37.4025 24.0152 37.4883 23.9112 37.592 23.8272C37.7036 23.7617 37.8302 23.726 37.9596 23.7238C38.1093 23.731 38.2562 23.7677 38.3916 23.8318C38.6244 23.9666 38.8497 24.1137 39.0667 24.2726C39.3216 24.4557 39.8427 24.86 40.225 25.171C40.6073 25.482 41.503 26.3186 42.2172 27.03C42.9314 27.7415 43.8336 28.7108 44.2244 29.184C44.6152 29.6573 44.9576 30.0528 44.9859 30.0632C45.0142 30.0736 45.1428 29.8056 45.2716 29.4676C45.4004 29.1295 45.5827 28.608 45.6768 28.3086C45.7709 28.0091 45.9134 27.4582 45.9934 27.0842C46.1073 26.5528 46.1403 26.1729 46.1438 25.3453C46.1475 24.5058 46.1227 24.1904 46.024 23.823C45.9357 23.5163 45.822 23.2174 45.6839 22.9295C45.3759 22.3104 44.9187 21.7775 44.3535 21.379C44.0098 21.1372 43.6511 20.9175 43.2795 20.7212C42.9537 20.553 42.4092 20.3091 42.0686 20.1789C41.7281 20.0487 41.0363 19.8252 40.5315 19.6823C40.0266 19.5395 39.1741 19.3339 38.6371 19.2255C38.1001 19.1171 37.173 18.9549 36.5768 18.8647C35.9807 18.7744 35.0496 18.6545 34.508 18.598C33.9665 18.5415 33.3586 18.4953 33.1575 18.4953H32.7898L32.8313 19.5708M61.7002 32.6981C61.227 32.7482 60.3782 32.8671 59.814 32.9612C59.2498 33.0553 58.3964 33.2309 57.9176 33.3515C57.4388 33.4722 56.7835 33.6672 56.4615 33.7851C56.1395 33.903 55.6675 34.1036 55.4127 34.2309C55.1172 34.3819 54.8299 34.5485 54.5522 34.7302C54.2771 34.9256 54.0191 35.1443 53.7813 35.3837C53.5211 35.661 53.3037 35.9755 53.1361 36.3168C52.9589 36.6888 52.8229 37.0791 52.7305 37.4807C52.627 37.9804 52.5821 38.4905 52.5966 39.0006C52.5966 39.4976 52.6265 40.133 52.6625 40.4124C52.6985 40.6918 52.7904 41.2275 52.8669 41.6027C52.9433 41.978 53.0145 42.2935 53.0251 42.3044C53.2325 42.0736 53.4262 41.831 53.6054 41.5777C53.9138 41.1673 54.4496 40.5188 54.7957 40.1368C55.1418 39.7547 55.7556 39.1489 56.1593 38.7909C56.563 38.433 57.1029 37.9773 57.3589 37.7784C57.6149 37.5796 58.083 37.2544 58.3989 37.0559C58.843 36.7772 59.0327 36.6952 59.2347 36.6952C59.4436 36.6952 59.5411 36.7403 59.721 36.9208C59.786 36.9726 59.8396 37.0373 59.8784 37.1108C59.9172 37.1843 59.9404 37.265 59.9465 37.3479C59.9425 37.4779 59.9153 37.6061 59.8661 37.7265C59.8166 37.835 59.5041 38.089 59.0553 38.3852C58.6536 38.6504 58.0868 39.0651 57.7956 39.3068C57.5044 39.5485 56.912 40.0928 56.4793 40.5164C56.0187 40.9703 55.5812 41.447 55.1684 41.9448C54.8803 42.3067 54.4727 42.8595 54.2628 43.1737C54.0529 43.488 53.8598 43.781 53.8337 43.8253C53.8027 43.8779 53.8734 43.9437 54.037 44.0143C54.1748 44.074 54.5734 44.2213 54.9224 44.3419C55.2713 44.4624 55.8671 44.63 56.246 44.7154C56.8058 44.8407 57.1278 44.8696 57.9611 44.8696C58.7943 44.8696 59.0554 44.8462 59.351 44.7443C59.5877 44.6604 59.8196 44.5637 60.0459 44.4548C60.3417 44.2738 60.6124 44.0548 60.8511 43.8032C61.2445 43.3999 61.3936 43.1783 61.726 42.5044C61.9718 41.9941 62.1819 41.4675 62.355 40.9283C62.4803 40.5083 62.6592 39.8045 62.7521 39.3644C62.8449 38.9244 62.9955 38.0469 63.0866 37.4145C63.1777 36.7822 63.2977 35.7194 63.3532 35.0529C63.4088 34.3865 63.4544 33.5599 63.4544 33.2163V32.5916L63.0077 32.599C62.762 32.603 62.1737 32.6477 61.7006 32.6984" fill="white"/>
</svg>
