<svg width="64" height="64" viewBox="0 0 64 64" fill="none" xmlns="http://www.w3.org/2000/svg">
<path d="M63.9979 31.5563C64.0127 32.6384 63.9497 33.7201 63.8091 34.7931C63.7152 35.5221 63.6089 36.2498 63.4901 36.9762C63.4612 37.2176 63.3632 37.4454 63.2078 37.6324C63.0524 37.8193 62.8463 37.9574 62.6142 38.0299C61.9257 38.2754 61.2399 38.5263 60.5541 38.7771C60.4584 38.8129 60.3627 38.8501 60.271 38.8952C60.198 38.9316 60.1338 38.9835 60.0829 39.0472C60.0319 39.1109 59.9954 39.1849 59.9759 39.2641C59.6423 40.3563 59.3672 41.4738 58.9339 42.5261C58.4368 43.7325 57.8107 44.8871 57.206 46.047C57.0013 46.4451 56.9561 46.7795 57.1608 47.1816C57.4904 47.8279 57.7762 48.4941 58.0912 49.1471C58.2093 49.3611 58.2609 49.6055 58.2393 49.849C58.2178 50.0925 58.1241 50.324 57.9703 50.514C56.8764 52.0229 55.736 53.4894 54.3816 54.7806C53.2338 55.8634 52.0008 56.8522 50.6946 57.7375C50.5125 57.8713 50.2969 57.9521 50.0718 57.9711C49.8466 57.9901 49.6205 57.9464 49.4186 57.845C48.7288 57.5278 48.0377 57.2107 47.3558 56.8788C47.237 56.8137 47.1026 56.7822 46.9673 56.7878C46.8319 56.7934 46.7006 56.8359 46.5876 56.9107C44.9694 57.8744 43.2537 58.664 41.4691 59.2663C40.883 59.4587 40.2888 59.6259 39.6947 59.7971C39.5075 59.843 39.3359 59.9379 39.1974 60.072C39.0589 60.2061 38.9585 60.3745 38.9065 60.5602C38.6872 61.233 38.4148 61.8873 38.1941 62.5588C38.0094 63.1228 37.5628 63.3614 37.0577 63.5024C37.0577 63.5024 35.2931 63.8804 33.4983 63.9297C32.3036 64.0376 31.1009 64.0212 29.9096 63.8806C28.8968 63.7625 27.8867 63.6152 26.8792 63.4692C26.6518 63.4421 26.4371 63.3502 26.2604 63.2046C26.0836 63.059 25.9525 62.8657 25.8824 62.6477C25.6259 61.9457 25.3508 61.2489 25.1168 60.5416C25.0597 60.3609 24.9579 60.1975 24.8208 60.0667C24.6837 59.9358 24.5158 59.8417 24.3326 59.7931C23.1085 59.3844 21.8777 58.9889 20.6735 58.5217C19.9744 58.2563 19.3231 57.8582 18.6493 57.5171C18.2147 57.2981 17.9728 57.1737 17.5409 56.9494C17.3378 56.8036 16.9537 56.8791 16.8035 56.9494C16.1097 57.2732 15.4846 57.537 14.7988 57.8781C14.574 58.0062 14.3158 58.0633 14.0579 58.042C13.8001 58.0207 13.5547 57.9219 13.354 57.7587C11.9212 56.7235 10.5243 55.6486 9.28689 54.3838C8.12041 53.183 7.06353 51.8804 6.12888 50.4914C5.99835 50.3074 5.92152 50.0906 5.90697 49.8654C5.89242 49.6403 5.94071 49.4154 6.04647 49.2161C6.36949 48.5366 6.68178 47.8505 7.0061 47.1723C7.08253 47.0308 7.11941 46.8714 7.11286 46.7107C7.10631 46.55 7.05658 46.3941 6.96888 46.2593C5.72657 44.1048 4.77336 41.7962 4.13385 39.3928C4.09981 39.2492 4.02841 39.117 3.92688 39.0098C3.82535 38.9026 3.69729 38.8242 3.55568 38.7824C2.81934 38.5169 2.08567 38.2515 1.34801 37.9861C1.12758 37.9188 0.931569 37.7887 0.784012 37.6117C0.636455 37.4346 0.543761 37.2184 0.517295 36.9895C0.299856 35.7528 0.145036 34.5059 0.0534273 33.2537C-0.0325391 32.1171 -0.0147328 30.975 0.106625 29.8417C0.224962 28.8132 0.372456 27.7886 0.518659 26.7628C0.543827 26.527 0.637187 26.3036 0.78732 26.12C0.937452 25.9364 1.13785 25.8005 1.36399 25.729C2.07241 25.4729 2.77685 25.2048 3.4906 24.9579C3.65871 24.9083 3.81036 24.8144 3.92964 24.686C4.04891 24.5576 4.1314 24.3994 4.16844 24.2281C4.80163 21.8921 5.73163 19.6469 6.93569 17.5474C7.01075 17.4271 7.05317 17.2893 7.05876 17.1475C7.06436 17.0058 7.03293 16.8651 6.96759 16.7392C6.63531 16.0385 6.31498 15.3325 5.97606 14.6344C5.85693 14.4207 5.80429 14.1764 5.82489 13.9326C5.84548 13.6888 5.93838 13.4568 6.09167 13.2661C7.27326 11.6325 8.51334 10.0492 10.0073 8.68362C11.0013 7.77803 12.056 6.94133 13.164 6.17937C13.3194 6.06667 13.486 5.97018 13.6611 5.89139C13.8191 5.82604 13.9894 5.79598 14.1602 5.80331C14.331 5.81065 14.4982 5.85521 14.65 5.93387C15.3371 6.25636 16.0296 6.56819 16.7128 6.89868C16.8538 6.97515 17.013 7.01196 17.1733 7.00518C17.3336 6.9984 17.4891 6.9483 17.6232 6.8602C19.8383 5.57814 22.2176 4.60351 24.6955 3.96312C24.7884 3.93941 24.8732 3.89099 24.9408 3.823C25.0085 3.75501 25.0564 3.66998 25.0796 3.57693C25.3534 2.82046 25.6268 2.06445 25.8997 1.30889C26.0326 0.922698 26.2825 0.630738 26.6971 0.540493C27.1118 0.450249 27.5544 0.379919 27.9877 0.324173C28.724 0.227297 29.4604 0.11847 30.1994 0.0693764C31.0248 0.013641 31.8555 -0.00631614 32.6822 0.00170088C33.822 0.029016 34.9586 0.136333 36.0834 0.322861C36.4981 0.385228 36.9168 0.439641 37.3235 0.533862C37.5325 0.581507 37.7252 0.683388 37.8822 0.829239C38.0393 0.97509 38.1551 1.15976 38.2181 1.36464C38.452 2.01495 38.7152 2.65461 38.9212 3.31284C38.967 3.49912 39.0656 3.66822 39.2052 3.79982C39.3448 3.93142 39.5194 4.01992 39.708 4.05469C42.0367 4.68227 44.2748 5.60736 46.367 6.8071C46.5011 6.8914 46.6554 6.93842 46.8137 6.94332C46.9721 6.94822 47.129 6.91082 47.2681 6.83498C47.8915 6.53506 48.5188 6.24574 49.1448 5.95246L49.4107 5.83169C49.6009 5.73325 49.8153 5.69119 50.0286 5.71047C50.242 5.72975 50.4454 5.80956 50.6149 5.94051C51.7455 6.72673 52.8284 7.57935 53.858 8.49385C55.3306 9.80901 56.5601 11.3339 57.7124 12.9317C57.7776 13.0233 57.8453 13.1148 57.9092 13.2077C58.0512 13.3972 58.1377 13.6224 58.1588 13.8583C58.1799 14.0941 58.1349 14.3311 58.0288 14.5428C57.7111 15.2196 57.4028 15.9004 57.0758 16.5719C56.9957 16.7174 56.9566 16.8819 56.9627 17.0478C56.9688 17.2138 57.0198 17.375 57.1103 17.5142C58.3752 19.6966 59.3395 22.0397 59.9773 24.4802C59.9991 24.5852 60.0485 24.6825 60.1205 24.7621C60.1924 24.8416 60.2843 24.9005 60.3866 24.9327C61.0897 25.1862 61.7875 25.4636 62.4986 25.6892C63.1127 25.8856 63.4383 26.2612 63.534 26.9074C63.756 28.4535 63.9673 29.993 63.9979 31.5563ZM18.2319 34.2291V21.3389C18.2319 20.9966 18.3649 20.8692 18.7038 20.8692H20.3718C20.7546 20.8692 20.8955 20.7364 20.8955 20.3476V15.858C20.8955 15.5488 21.0191 15.4253 21.3275 15.424H23.8316C24.1692 15.424 24.2888 15.5461 24.2888 15.8885V20.4113C24.2888 20.7191 24.4377 20.8678 24.75 20.8678H26.4699C26.8128 20.8678 26.947 21.0005 26.947 21.3349V47.0994C26.947 47.4378 26.8274 47.5559 26.4832 47.5559H24.7978C24.4377 47.5559 24.2888 47.7072 24.2861 48.0615V57.5331C24.2861 57.8582 24.3552 57.9671 24.6569 58.0865C24.8201 58.1508 24.987 58.2053 25.1567 58.2497C27.2619 58.8089 29.4288 59.1023 31.607 59.123C33.2009 59.1463 34.7937 59.0277 36.3666 58.7686C37.9252 58.5109 39.4588 58.1202 40.9508 57.6008C47.8277 55.1921 53.4546 50.1381 56.5787 43.5639C58.0712 40.4103 58.9525 37.0023 59.1758 33.5204C59.2467 32.3946 59.2404 31.2653 59.1572 30.1403C59.0653 28.7686 58.8702 27.4058 58.5737 26.0634C55.9382 14.1203 45.6454 5.40086 33.4146 4.75007C31.2029 4.64125 28.9899 4.72884 26.8075 5.1774C24.8505 5.56273 22.9387 6.14979 21.1028 6.92918C18.4298 8.08769 15.9613 9.67005 13.7926 11.6152C11.9001 13.2968 10.2571 15.2398 8.91336 17.3855C5.64884 22.5676 4.23412 28.702 4.89939 34.7905C5.04481 36.1916 5.30396 37.5786 5.67427 38.9377C7.64283 46.234 12.5511 52.3898 19.2315 55.9406C19.6169 56.1449 20.0103 56.3387 20.4064 56.5152C20.6895 56.6479 20.8862 56.5152 20.8875 56.2166C20.8875 53.5013 20.8906 50.7865 20.8968 48.0721C20.8968 47.7045 20.7466 47.5546 20.3811 47.5532H18.6267C18.5737 47.5607 18.5197 47.5559 18.4688 47.5393C18.4179 47.5227 18.3715 47.4947 18.333 47.4575C18.2946 47.4203 18.2652 47.3747 18.247 47.3244C18.2287 47.2741 18.2223 47.2203 18.228 47.1671C18.228 47.0994 18.228 47.0344 18.228 46.9627L18.2319 34.2291Z" fill="#2E6A99"/>
<path d="M18.2334 34.228V47.1682C18.2277 47.2214 18.2342 47.2752 18.2524 47.3255C18.2706 47.3758 18.3001 47.4213 18.3385 47.4586C18.377 47.4958 18.4234 47.5237 18.4743 47.5403C18.5251 47.5569 18.5791 47.5617 18.6321 47.5542H20.3865C20.7519 47.5542 20.9021 47.7055 20.9021 48.073C20.9021 50.7864 20.899 53.5003 20.8928 56.2146C20.8928 56.5145 20.6948 56.6431 20.4117 56.5131C20.013 56.3314 19.6223 56.143 19.2369 55.9387C12.557 52.3891 7.64905 46.2354 5.68069 38.9416C5.3104 37.583 5.05127 36.1965 4.90586 34.7958C4.23796 28.7075 5.65126 22.5725 8.91554 17.3901C10.259 15.2437 11.9018 13.3 13.7944 11.6178C15.9631 9.67328 18.4314 8.09147 21.1041 6.93342C22.9413 6.15495 24.8543 5.56898 26.8123 5.18492C28.9946 4.73651 31.2074 4.65426 33.4189 4.75774C37.7062 4.96709 41.8801 6.20571 45.5876 8.36886C52.2091 12.1935 56.9195 18.6156 58.5723 26.0717C58.8688 27.4137 59.0638 28.776 59.1557 30.1472C59.239 31.2718 59.2452 32.4008 59.1743 33.5262C58.951 37.007 58.0698 40.4138 56.5774 43.5663C53.4519 50.1337 47.8267 55.1818 40.9532 57.5877C39.4614 58.107 37.9279 58.4976 36.3694 58.7552C34.7966 59.0142 33.2039 59.1328 31.6101 59.1094C29.4322 59.0888 27.2654 58.7955 25.1603 58.2365C24.9907 58.1921 24.8238 58.1376 24.6606 58.0733C24.3589 57.9539 24.2898 57.8451 24.2898 57.5201V48.0518C24.2898 47.6975 24.4413 47.5476 24.8015 47.5463H26.4867C26.831 47.5463 26.9506 47.4282 26.9506 47.0899V21.3395C26.9506 21.0025 26.8177 20.8726 26.4735 20.8726H24.751C24.4386 20.8726 24.2898 20.724 24.2898 20.4162V15.895C24.2898 15.5527 24.1702 15.4306 23.8326 15.4306H21.3274C21.0191 15.4306 20.8955 15.5554 20.8955 15.8645V20.3525C20.8955 20.7373 20.7546 20.8726 20.3718 20.8739H18.7052C18.3623 20.8739 18.2334 21.0066 18.2334 21.3435V34.228ZM31.973 31.909V55.1466C31.973 55.81 31.9579 56.4729 31.9579 57.1362C31.9568 57.331 32.1589 57.432 32.3382 57.4323C32.3382 57.4323 32.6191 57.4382 32.7599 57.4329C35.9814 57.3579 39.1586 56.6638 42.1121 55.3775C50.073 51.9402 55.7466 44.7101 57.1834 36.1715C57.3914 34.9834 57.5069 33.781 57.529 32.575C57.5369 31.84 57.4944 31.1051 57.4665 30.3688C57.4189 29.0849 57.2561 27.808 56.9801 26.5533C56.2295 23.0317 54.7341 19.7115 52.5943 16.8156C49.5587 12.7162 45.6381 9.78433 40.8775 7.94958C40.7047 7.88192 40.6383 7.9257 40.6263 8.11275V8.26664C40.6263 9.90375 40.6329 11.5421 40.6263 13.1753V20.4002C40.6263 20.7796 40.6808 20.834 41.0569 20.834H41.1074L45.7391 20.8233C46.0634 20.8233 46.1644 20.9268 46.1644 21.2545V24.1267C46.1644 24.4464 46.07 24.5366 45.7457 24.5366H40.9612C40.6622 24.5366 40.6369 24.5645 40.6369 24.8683V37.7543C40.6369 38.3725 40.6369 38.9894 40.6476 39.6116C40.6753 40.6386 41.0312 41.6298 41.663 42.44C42.2385 43.2028 42.9535 43.7667 43.8918 44.032C44.5071 44.1992 45.1371 44.1899 45.767 44.1832C46.0674 44.1832 46.1658 44.2801 46.1658 44.5812V47.2345C46.1658 47.5237 46.0515 47.6325 45.767 47.6325H43.1448C42.8212 47.6324 42.4981 47.6062 42.1786 47.5542C41.2756 47.399 40.4229 47.0296 39.692 46.477C38.6288 45.681 37.8154 44.7112 37.3595 43.4549C37.1187 42.7678 36.9982 42.0443 37.0034 41.3163C36.9887 39.2255 36.9715 37.1347 36.9728 35.0439C36.9728 25.813 36.979 16.5822 36.9914 7.3513C36.9929 7.26628 36.9898 7.18125 36.9821 7.09658C36.9846 7.02744 36.96 6.96006 36.9136 6.90876C36.8672 6.85747 36.8026 6.82633 36.7336 6.82196C36.4997 6.78215 36.2671 6.72246 36.0318 6.6893C35.2278 6.59377 34.4224 6.49826 33.617 6.42397C33.1704 6.38152 32.7212 6.37886 32.2733 6.36559C32.0487 6.35896 31.9823 6.43062 31.9783 6.65876V7.08329L31.973 31.909Z" fill="#C0DEF5"/>
<path d="M31.9597 31.9088V6.66761C31.9597 6.43947 32.0302 6.36784 32.2549 6.37444C32.703 6.3877 33.1524 6.39035 33.5992 6.4328C34.405 6.50709 35.2108 6.60259 36.0152 6.6981C36.2506 6.72596 36.4833 6.78565 36.7173 6.83074C36.7864 6.8351 36.851 6.86623 36.8974 6.91751C36.9439 6.96879 36.9685 7.03618 36.966 7.10532C36.9726 7.19021 36.9753 7.2751 36.9753 7.36C36.9682 16.5895 36.962 25.819 36.9567 35.0486C36.9567 37.139 36.9726 39.2295 36.9872 41.3201C36.9815 42.0456 37.1007 42.7666 37.3396 43.4517C37.7957 44.7078 38.6121 45.6814 39.6732 46.4734C40.4045 47.0259 41.2576 47.3952 42.1609 47.5504C42.4805 47.6024 42.8038 47.6286 43.1276 47.6287C44.0012 47.6393 44.8761 47.6287 45.7511 47.6287C46.0396 47.6287 46.15 47.5159 46.15 47.2308V44.5778C46.15 44.2767 46.0516 44.1799 45.7511 44.1799C45.1208 44.1865 44.4905 44.1958 43.8749 44.0287C42.9362 43.7727 42.2208 43.205 41.645 42.4369C41.013 41.627 40.6569 40.6359 40.6292 39.6089C40.6145 38.9921 40.6185 38.3753 40.6185 37.7519V24.868C40.6185 24.5642 40.6438 24.5364 40.9429 24.5364H45.7298C46.0542 24.5364 46.1473 24.4462 46.1486 24.1265V21.2547C46.1486 20.9271 46.0475 20.8236 45.7231 20.8236L41.0892 20.8342H41.0387C40.6624 20.8342 40.6079 20.7799 40.6079 20.4005V8.11479C40.6199 7.92776 40.6864 7.88399 40.8592 7.95168C45.6221 9.78087 49.5447 12.7177 52.5816 16.8164C54.7224 19.7115 56.2185 23.0312 56.9696 26.5526C57.2503 27.8071 57.4177 29.0843 57.4696 30.3688C57.4975 31.105 57.54 31.8399 57.5321 32.5747C57.51 33.7806 57.3944 34.9828 57.1863 36.1708C55.7348 44.7036 50.0599 51.9272 42.1011 55.3726C39.1454 56.6589 35.9681 57.3589 32.7455 57.4339H32.3379C32.1134 57.4267 31.9603 57.3452 31.957 57.1314V55.1418L31.9597 31.9088Z" fill="#2E6A99"/>
</svg>
