<svg width="96" height="96" viewBox="0 0 96 96" fill="none" xmlns="http://www.w3.org/2000/svg">
<rect width="96" height="96" rx="48" fill="white"/>
<g clip-path="url(#clip0_40_2301)">
<path fill-rule="evenodd" clip-rule="evenodd" d="M47.9448 16.012C47.8022 16.0289 47.369 16.0937 46.9822 16.1565C46.5953 16.2194 45.6455 16.4326 44.8717 16.6309C44.0979 16.8292 42.8813 17.1764 42.1687 17.4014C41.456 17.6264 40.1656 18.0608 39.3011 18.3657C38.4367 18.6707 37.0038 19.1925 36.1168 19.5255C35.2299 19.8586 33.0713 20.707 31.3194 21.411C29.5675 22.115 27.2083 23.0779 26.0751 23.551C24.9418 24.0242 23.062 24.826 21.8979 25.3329C20.6353 25.8823 19.6973 26.3347 19.5728 26.4539C19.4029 26.6587 19.2698 26.8914 19.1793 27.1416C19.0775 27.4099 18.9102 27.946 18.8073 28.333C18.7044 28.7199 18.5547 29.403 18.4744 29.851C18.3941 30.2991 18.2772 31.0658 18.2149 31.5549C18.1526 32.0439 18.0703 33.2102 18.0321 34.1467C17.9894 35.1981 17.9892 36.4439 18.0321 37.4044C18.0699 38.2597 18.1531 39.5426 18.217 40.2554C18.2809 40.9682 18.3979 42.0346 18.4771 42.6251C18.5564 43.2156 18.706 44.1826 18.8085 44.7732C18.911 45.3637 19.0967 46.3135 19.2197 46.8836C19.3428 47.4538 19.5918 48.4782 19.7731 49.16C19.9543 49.8418 20.2652 50.9081 20.4638 51.5297C20.6624 52.1512 20.9811 53.0895 21.1721 53.6148C21.3631 54.14 21.7391 55.0896 22.0076 55.7252C22.2762 56.3609 22.8174 57.514 23.2107 58.2883C23.6039 59.0625 24.1857 60.1284 24.5036 60.6579C24.8216 61.1875 25.3672 62.0372 25.7161 62.5463C26.0651 63.0553 26.5836 63.7718 26.869 64.1384C27.1543 64.5049 27.5549 65.0048 27.7597 65.2491C27.9645 65.4935 28.3827 65.9736 28.6891 66.316C28.9955 66.6584 30.0886 67.7493 31.1182 68.7403C32.1477 69.7314 33.3806 70.8879 33.8581 71.3106C34.3356 71.7333 34.926 72.2438 35.1705 72.4462C35.415 72.6486 35.8926 73.0193 36.2322 73.2708C36.7626 73.6638 36.8941 73.7282 37.1662 73.7282C37.2602 73.738 37.3552 73.7257 37.4437 73.6922C37.5321 73.6588 37.6115 73.6052 37.6755 73.5357C37.7758 73.4384 37.857 73.3232 37.9149 73.196C37.9409 73.0646 37.9409 72.9293 37.9149 72.7978C37.8677 72.6069 37.7535 72.4393 37.5931 72.3255C37.4421 72.2038 36.9724 71.8328 36.5493 71.5006C36.1262 71.1685 35.3431 70.5058 34.809 70.0276C34.275 69.5495 33.1508 68.495 32.3123 67.6847C31.4737 66.8743 30.5054 65.9114 30.1614 65.5449C29.8175 65.1783 29.2849 64.5785 28.9785 64.212C28.6721 63.8454 28.1875 63.229 27.903 62.842C27.6184 62.4551 27.1184 61.7386 26.7919 61.2499C26.4654 60.7612 25.9627 59.9605 25.6747 59.4708C25.3867 58.9811 24.8835 58.0477 24.5567 57.3972C24.23 56.7468 23.7565 55.731 23.5034 55.1405C23.2502 54.5499 22.8508 53.5325 22.6146 52.8798C22.3784 52.2271 22.0363 51.2105 21.8523 50.6212C21.6683 50.0318 21.3825 49.0167 21.2146 48.3651C21.0466 47.7134 20.7786 46.5268 20.6189 45.7281C20.4592 44.9293 20.2436 43.6836 20.1401 42.9597C20.0365 42.2359 19.9019 41.1065 19.8409 40.4501C19.7799 39.7937 19.697 38.69 19.6569 37.9977C19.6168 37.3055 19.5832 36.2056 19.5829 35.5539C19.5826 34.9023 19.6167 33.9026 19.6586 33.3327C19.7005 32.7628 19.7836 31.9132 19.8434 31.4442C19.9032 30.9752 20.0026 30.3292 20.0642 30.0072C20.1259 29.6852 20.2275 29.2186 20.2899 28.9704C20.3523 28.7223 20.4697 28.3157 20.5505 28.0671C20.6625 27.7228 20.7455 27.5927 20.8987 27.5215C21.0094 27.4699 21.8664 27.0953 22.8031 26.6887C23.7398 26.282 25.5227 25.5231 26.7649 25.0018C28.0071 24.4805 30.2231 23.5702 31.6894 22.9786C33.1557 22.387 35.1884 21.5866 36.2066 21.1999C37.2248 20.8132 38.8142 20.2286 39.7384 19.9005C40.6627 19.5724 41.9956 19.1228 42.7005 18.9016C43.4054 18.6804 44.4818 18.3639 45.0926 18.1996C45.7034 18.0353 46.5993 17.8324 47.0832 17.7489C47.5577 17.666 48.0371 17.6152 48.5184 17.597C48.9554 17.6086 49.3912 17.6476 49.8233 17.7138C50.2353 17.7781 50.9058 17.9135 51.3131 18.0147C51.7205 18.1159 52.4041 18.2992 52.8312 18.4221C53.2584 18.545 54.1253 18.8133 54.7566 19.0184C55.3879 19.2236 56.6032 19.6408 57.4573 19.9456C58.3113 20.2504 59.994 20.8768 61.1969 21.3378C62.3998 21.7987 64.4171 22.5977 65.6789 23.1135C66.9407 23.6292 68.7743 24.3875 69.7518 24.7985C70.7293 25.2095 72.5788 26.0038 73.8617 26.5634L76.1943 27.581L76.3247 27.879C76.3963 28.0429 76.5698 28.5963 76.7103 29.1088C76.8509 29.6213 77.0337 30.4149 77.1166 30.8724C77.1996 31.33 77.319 32.0707 77.3821 32.5187C77.4499 33 77.5143 34.1815 77.5398 35.4067C77.5661 36.7023 77.5505 37.9248 77.4965 38.665C77.449 39.3167 77.3431 40.3331 77.2609 40.9237C77.1788 41.5142 76.9816 42.6472 76.8225 43.4415C76.6633 44.2357 76.3507 45.6019 76.1278 46.4776C75.9049 47.3534 75.6021 48.4864 75.4555 48.9954C75.309 49.5045 74.9093 50.7542 74.5679 51.7724C74.2266 52.7907 73.7319 54.1409 73.4685 54.7729C73.2051 55.4048 72.7412 56.4216 72.4375 57.0322C72.1337 57.6429 71.7261 58.4255 71.5317 58.7712C71.3374 59.1168 70.9091 59.833 70.5804 60.3625C70.2517 60.8919 69.701 61.7251 69.3567 62.2137C69.0125 62.7024 68.4059 63.5189 68.0091 64.0276C67.6123 64.5362 66.905 65.3865 66.4387 65.9159C65.9724 66.4453 65.11 67.3647 64.5236 67.9587C63.9371 68.5527 63.0252 69.4159 62.4982 69.8768C61.9713 70.3376 61.1543 71.0212 60.6844 71.3956C60.2145 71.7701 59.4534 72.3496 58.9939 72.6837C58.5344 73.0178 57.7272 73.571 57.2002 73.9141C56.6731 74.2571 55.7826 74.7998 55.2215 75.1203C54.6604 75.4407 53.768 75.9293 53.2385 76.2061C52.7091 76.4829 51.826 76.9091 51.2762 77.1536C50.7264 77.3981 49.8322 77.7748 49.2893 77.9907L48.3021 78.3833L47.623 78.1779C47.2496 78.0648 46.5943 77.8343 46.1666 77.6653C45.5794 77.4201 45.0054 77.1444 44.4469 76.8395C43.8457 76.5082 43.4209 76.3203 43.2732 76.3203C43.1086 76.3203 42.9688 76.3931 42.7899 76.5721C42.6135 76.7485 42.538 76.8917 42.538 77.05C42.5414 77.191 42.5699 77.3301 42.6223 77.461C42.7484 77.6393 42.9094 77.7901 43.0955 77.9044C43.3096 78.0464 43.9235 78.3828 44.46 78.6516C45.167 78.9911 45.8937 79.2882 46.6361 79.5411C47.2966 79.7617 47.9704 79.9635 48.1335 79.9895C48.3783 80.0289 48.5921 79.9754 49.3533 79.6865C49.8609 79.4937 50.7945 79.111 51.4279 78.8359C52.0613 78.5608 53.025 78.113 53.5694 77.8397C54.1138 77.5664 54.9626 77.1179 55.4547 76.8418C55.9468 76.5658 56.7165 76.1146 57.164 75.8391C57.6116 75.5636 58.3941 75.0539 58.9033 74.706C59.4125 74.3581 60.2202 73.7784 60.6984 73.4179C61.1765 73.0574 61.8763 72.5073 62.2535 72.1956C62.6307 71.8838 63.3557 71.2553 63.8649 70.799C64.3741 70.3428 65.3239 69.4238 65.9754 68.757C66.6269 68.0903 67.4614 67.1948 67.8297 66.7674C68.198 66.3399 68.6999 65.7403 68.9453 65.4347C69.1907 65.1291 69.6406 64.5461 69.9453 64.1388C70.25 63.7314 70.6825 63.1317 70.907 62.8059C71.1315 62.48 71.5846 61.7807 71.914 61.2507C72.2433 60.7207 72.7552 59.8548 73.0509 59.3253C73.3466 58.7957 73.7869 57.946 74.0301 57.4369C74.2733 56.9279 74.6532 56.078 74.8759 55.5486C75.0985 55.0192 75.4574 54.1008 75.6737 53.508C75.8901 52.9153 76.2184 51.9488 76.4037 51.3605C76.589 50.7722 76.8615 49.8743 77.0094 49.3653C77.1572 48.8562 77.4573 47.7355 77.6763 46.8746C77.8952 46.0137 78.2081 44.6475 78.3714 43.8384C78.5348 43.0293 78.7364 41.899 78.8196 41.3269C78.9028 40.7548 79.0211 39.6216 79.0825 38.8091C79.1439 37.9966 79.1941 36.795 79.1941 36.1391C79.1941 35.4832 79.161 34.5168 79.1202 33.9916C79.0795 33.4663 79.011 32.7367 78.9678 32.3702C78.9245 32.0036 78.8216 31.3205 78.7392 30.8521C78.6568 30.3836 78.5226 29.7172 78.4411 29.371C78.3596 29.0248 78.1751 28.375 78.0312 27.9271C77.9185 27.5625 77.7869 27.2042 77.6368 26.8534C77.556 26.6994 77.4529 26.5581 77.331 26.434C77.2354 26.3459 76.4074 25.9419 75.4909 25.5364C74.5744 25.1309 73.0416 24.4644 72.0844 24.0555C71.1273 23.6466 69.6134 23.0077 68.721 22.636C67.8285 22.2643 65.9788 21.5131 64.6111 20.9678C63.2434 20.4224 61.4427 19.7187 60.6079 19.4059C59.7732 19.0931 58.3934 18.5902 57.5419 18.2887C56.6905 17.9872 55.3075 17.5273 54.4687 17.2676C53.6298 17.0079 52.4602 16.6761 51.8696 16.5301C51.2791 16.3841 50.5087 16.2161 50.1577 16.1563C49.8066 16.0965 49.2236 16.0329 48.8617 16.0146C48.5564 15.996 48.2502 15.9952 47.9448 16.0122M63.3024 38.0512C63.1849 38.1421 59.2565 41.9836 54.5726 46.5879C49.8888 51.1923 45.7652 55.2379 45.4091 55.5782L44.7617 56.1968L41.9834 53.466C40.4552 51.9639 38.4908 50.0434 37.6182 49.1982C36.1015 47.7293 36.0189 47.6616 35.7411 47.6616C35.5691 47.6592 35.4009 47.7115 35.2607 47.8109C35.1381 47.9196 35.0445 48.057 34.9882 48.2108C34.9422 48.3522 34.9301 48.5025 34.9527 48.6495C34.9821 48.7665 36.518 50.3319 39.0104 52.7863C41.2162 54.958 43.3427 57.0428 43.7362 57.4189C44.3909 58.045 44.4763 58.1024 44.7434 58.1024C44.9475 58.1027 45.145 58.0306 45.3008 57.8988C45.447 57.7868 49.8151 53.5167 55.0081 48.4091C60.201 43.3015 64.4871 39.0333 64.5328 38.9232C64.5802 38.7901 64.5913 38.6467 64.565 38.5078C64.5159 38.3526 64.4339 38.2098 64.3247 38.0891C64.2652 38.016 64.1882 37.9591 64.101 37.9235C64.0137 37.8879 63.9189 37.8748 63.8252 37.8855C63.6372 37.8795 63.4528 37.9377 63.3022 38.0504" fill="black"/>
</g>
<defs>
<clipPath id="clip0_40_2301">
<rect width="64" height="64" fill="white" transform="translate(16 16)"/>
</clipPath>
</defs>
</svg>
