<svg width="96" height="96" viewBox="0 0 96 96" fill="none" xmlns="http://www.w3.org/2000/svg">
<rect width="96" height="96" rx="48" fill="black"/>
<g clip-path="url(#clip0_40_2620)">
<path d="M79.2374 78.5708H16.7629C16.5606 78.5708 16.3665 78.4904 16.2235 78.3473C16.0804 78.2042 16 78.0102 16 77.8078C16 77.6055 16.0804 77.4115 16.2235 77.2684C16.3665 77.1253 16.5606 77.0449 16.7629 77.0449H79.2374C79.4398 77.0449 79.6338 77.1253 79.7769 77.2684C79.92 77.4115 80.0004 77.6055 80.0004 77.8078C80.0004 78.0102 79.92 78.2042 79.7769 78.3473C79.6338 78.4904 79.4398 78.5708 79.2374 78.5708Z" fill="white"/>
<path d="M47.9999 75.1567L32.1933 70.8676C32.0964 70.8413 32.0056 70.7962 31.9262 70.7348C31.8467 70.6735 31.7801 70.5971 31.7302 70.51C31.6802 70.4229 31.648 70.3268 31.6351 70.2273C31.6223 70.1277 31.6293 70.0266 31.6556 69.9297C31.6818 69.8328 31.7269 69.7421 31.7883 69.6626C31.8496 69.5831 31.926 69.5166 32.0131 69.4666C32.1002 69.4167 32.1963 69.3844 32.2958 69.3716C32.3954 69.3588 32.4965 69.3657 32.5934 69.392L47.9999 73.581L63.4059 69.3919C63.5027 69.3656 63.6039 69.3587 63.7034 69.3715C63.803 69.3843 63.8991 69.4166 63.9862 69.4665C64.0732 69.5164 64.1496 69.583 64.211 69.6625C64.2723 69.7419 64.3174 69.8327 64.3437 69.9296C64.37 70.0265 64.3769 70.1276 64.3641 70.2272C64.3513 70.3267 64.319 70.4228 64.2691 70.5099C64.2192 70.597 64.1526 70.6734 64.0731 70.7347C63.9937 70.7961 63.9029 70.8412 63.806 70.8674L47.9999 75.1567Z" fill="white"/>
<path d="M34.9074 78.5708C34.807 78.5714 34.7075 78.5521 34.6147 78.514C34.5218 78.4759 34.4375 78.4198 34.3665 78.3488C34.2956 78.2779 34.2394 78.1935 34.2013 78.1007C34.1632 78.0078 34.1439 77.9083 34.1445 77.808V71.468C34.1445 71.2657 34.2249 71.0716 34.368 70.9285C34.5111 70.7855 34.7051 70.7051 34.9075 70.7051C35.1098 70.7051 35.3039 70.7855 35.4469 70.9285C35.59 71.0716 35.6704 71.2657 35.6704 71.468V77.808C35.6696 78.0101 35.5889 78.2037 35.446 78.3466C35.3031 78.4895 35.1095 78.5701 34.9074 78.5708Z" fill="white"/>
<path d="M61.0929 78.5708C60.9925 78.5714 60.8931 78.5521 60.8002 78.514C60.7074 78.4759 60.623 78.4198 60.5521 78.3488C60.4811 78.2779 60.4249 78.1935 60.3868 78.1007C60.3487 78.0078 60.3294 77.9083 60.3301 77.808V71.468C60.3301 71.2657 60.4105 71.0716 60.5535 70.9285C60.6966 70.7855 60.8907 70.7051 61.093 70.7051C61.2954 70.7051 61.4894 70.7855 61.6325 70.9285C61.7756 71.0716 61.8559 71.2657 61.8559 71.468V77.808C61.8566 77.9084 61.8373 78.0079 61.7992 78.1007C61.7611 78.1936 61.7049 78.2779 61.6339 78.3489C61.5629 78.4199 61.4785 78.476 61.3857 78.5141C61.2928 78.5522 61.1933 78.5715 61.0929 78.5708Z" fill="white"/>
<path d="M48.5382 58.6011C48.4379 58.6017 48.3384 58.5824 48.2455 58.5443C48.1527 58.5062 48.0683 58.4501 47.9974 58.3791C47.9264 58.3082 47.8703 58.2238 47.8322 58.131C47.794 58.0381 47.7748 57.9386 47.7754 57.8383V45.9211C47.7754 45.7188 47.8558 45.5247 47.9989 45.3817C48.1419 45.2386 48.336 45.1582 48.5383 45.1582C48.7407 45.1582 48.9347 45.2386 49.0778 45.3817C49.2209 45.5247 49.3013 45.7188 49.3013 45.9211V57.8383C49.3005 58.0404 49.2198 58.234 49.0769 58.3769C48.9339 58.5198 48.7403 58.6003 48.5382 58.6011Z" fill="white"/>
<path d="M67.3069 78.5706C67.1251 78.57 66.9496 78.5044 66.8119 78.3856C66.6743 78.2669 66.5837 78.1028 66.5565 77.923C66.5293 77.7432 66.5673 77.5597 66.6637 77.4055C66.76 77.2514 66.9084 77.1368 67.0819 77.0824C68.2256 76.7469 69.2301 76.0501 69.945 75.0964C70.66 74.1427 71.0471 72.9832 71.0485 71.7912C71.0499 70.5992 70.6654 69.4388 69.9527 68.4834C69.2399 67.5281 68.237 66.829 67.0941 66.4908L56.4023 63.5772L55.965 58.0125C55.9576 57.9131 55.9698 57.8132 56.0011 57.7185C56.0323 57.6239 56.0818 57.5363 56.1469 57.4608C56.2782 57.3083 56.4648 57.2143 56.6655 57.1994C56.8662 57.1844 57.0647 57.2499 57.2172 57.3812C57.3697 57.5126 57.4637 57.6992 57.4786 57.8999L57.8287 62.3892L67.52 65.0277C68.9759 65.4575 70.2538 66.3468 71.1627 67.5627C72.0716 68.7787 72.5627 70.256 72.5627 71.7741C72.5627 73.2922 72.0716 74.7696 71.1627 75.9855C70.2538 77.2015 68.9759 78.0907 67.52 78.5205C67.4548 78.5562 67.3812 78.5734 67.3069 78.5706Z" fill="white"/>
<path d="M27.8414 78.5196C27.7911 78.5218 27.7407 78.5177 27.6914 78.5074C27.4191 78.4521 27.1546 78.3639 26.9036 78.2449C25.3155 77.444 25.1149 75.7935 25.1027 75.7185C25.0795 75.5178 25.137 75.3161 25.2625 75.1577C25.388 74.9994 25.5713 74.8974 25.772 74.8742C25.9727 74.851 26.1744 74.9084 26.3328 75.034C26.4911 75.1595 26.5931 75.3428 26.6163 75.5435C26.6163 75.581 26.7664 76.4689 27.5792 76.8815C27.7055 76.9458 27.8402 76.9921 27.9794 77.019C28.177 77.0614 28.3503 77.1791 28.4624 77.3473C28.5745 77.5155 28.6165 77.7207 28.5796 77.9194C28.5448 78.0894 28.4523 78.242 28.3178 78.3514C28.1832 78.4609 28.0149 78.5203 27.8414 78.5196Z" fill="white"/>
<path d="M26.1546 68.9803C26.0147 68.9816 25.8772 68.9436 25.7578 68.8707C25.6385 68.7977 25.542 68.6927 25.4793 68.5676C25.3889 68.3867 25.3736 68.1774 25.4369 67.9853C25.5001 67.7932 25.6368 67.6339 25.817 67.5422L31.1941 64.8036L31.2566 64.7792L39.4596 62.1657V58.6262C39.4596 58.4239 39.5399 58.2298 39.683 58.0867C39.8261 57.9437 40.0202 57.8633 40.2225 57.8633C40.4248 57.8633 40.6189 57.9437 40.762 58.0867C40.905 58.2298 40.9854 58.4239 40.9854 58.6262V63.278L31.7815 66.2041L26.4923 68.8928C26.3898 68.9522 26.273 68.9825 26.1546 68.9803Z" fill="white"/>
<path d="M53.0265 63.5029L40.3215 63.4907C40.1192 63.4907 39.9251 63.4103 39.7821 63.2672C39.639 63.1242 39.5586 62.9301 39.5586 62.7278C39.5586 62.5254 39.639 62.3314 39.7821 62.1883C39.9251 62.0452 40.1192 61.9648 40.3215 61.9648L53.0265 61.977C53.1269 61.9764 53.2263 61.9957 53.3192 62.0338C53.412 62.0719 53.4964 62.1281 53.5673 62.199C53.6383 62.27 53.6945 62.3543 53.7326 62.4472C53.7707 62.54 53.79 62.6395 53.7893 62.7399C53.7864 62.9413 53.7052 63.1337 53.5627 63.2761C53.4203 63.4186 53.2279 63.5 53.0265 63.5029Z" fill="white"/>
<path d="M65.7196 58.5994H29.693C29.1377 58.5661 28.6026 58.3789 28.1476 58.0586C27.6927 57.7384 27.336 57.2978 27.1174 56.7862C26.8875 56.2613 26.8079 55.683 26.8873 55.1155C26.9668 54.5481 27.2023 54.0138 27.5676 53.5724L35.6707 43.6685C36.6586 42.4555 37.6215 41.0049 38.6845 39.1167C38.9812 38.5839 39.4144 38.1398 39.9395 37.83C40.4647 37.5201 41.0629 37.3556 41.6727 37.3535H55.5283C56.1686 37.3531 56.7962 37.5322 57.3399 37.8704C57.8836 38.2085 58.3217 38.6923 58.6044 39.2668C59.4672 41.0425 60.5676 42.8312 62.1688 45.0691L68.2336 53.6224C68.5583 54.0841 68.7547 54.6236 68.8031 55.1859C68.8514 55.7482 68.7499 56.3133 68.5088 56.8236C68.2766 57.3228 67.9131 57.7493 67.4572 58.0577C67.0012 58.3661 66.47 58.5447 65.9203 58.5743H65.8703C65.8221 58.5921 65.771 58.6006 65.7196 58.5994ZM29.7681 57.0735H65.6946C65.7321 57.0735 65.7821 57.0613 65.8446 57.0613C66.119 57.0418 66.3832 56.9491 66.6097 56.793C66.8362 56.6369 67.0168 56.423 67.1327 56.1735C67.2625 55.9098 67.3182 55.6158 67.294 55.3229C67.2698 55.03 67.1665 54.7491 66.9951 54.5103L60.9303 45.957C59.2797 43.6561 58.1416 41.7929 57.2414 39.9547C57.0854 39.6328 56.8421 39.3613 56.5392 39.1712C56.2362 38.981 55.8859 38.8799 55.5283 38.8794H41.6727C41.3327 38.8816 40.9995 38.9742 40.7072 39.1479C40.4149 39.3215 40.1741 39.5698 40.0095 39.8673C38.9091 41.8305 37.8961 43.3436 36.8583 44.6316L28.7426 54.5355C28.5528 54.7587 28.4308 55.0314 28.3909 55.3217C28.351 55.6119 28.395 55.9075 28.5175 56.1736C28.6199 56.4263 28.7916 56.6449 29.0128 56.8042C29.2341 56.9634 29.4959 57.0569 29.768 57.0738L29.7681 57.0735Z" fill="white"/>
<path d="M61.0057 53.8234H52.7774C52.631 53.8256 52.486 53.794 52.3537 53.7311C52.2214 53.6683 52.1054 53.5757 52.0146 53.4608C51.9227 53.3511 51.856 53.2226 51.8193 53.0843C51.7825 52.946 51.7766 52.8013 51.802 52.6605C51.9395 51.8352 52.2646 48.9841 50.3765 47.1208C49.8278 46.5781 49.1597 46.1713 48.4257 45.9328C47.9505 46.1329 46.9626 46.5955 46.4249 47.1208C44.5991 48.9216 44.8242 51.5975 44.9994 52.673C45.0237 52.8153 45.0168 52.9613 44.9791 53.1007C44.9414 53.2401 44.8738 53.3696 44.781 53.4803C44.6882 53.5909 44.5724 53.68 44.4417 53.7415C44.311 53.8029 44.1685 53.8351 44.024 53.8359H35.7958C35.6065 53.8359 35.4211 53.7818 35.2616 53.6798C35.102 53.5779 34.975 53.4325 34.8954 53.2607C34.8146 53.091 34.7846 52.9016 34.809 52.7152C34.8334 52.5288 34.9112 52.3535 35.033 52.2103L41.0729 44.9197C41.2031 44.7666 41.3884 44.671 41.5886 44.6536C41.7888 44.6362 41.9878 44.6984 42.1424 44.8267C42.2971 44.955 42.3949 45.1391 42.4148 45.3391C42.4346 45.5391 42.3749 45.7388 42.2484 45.895L36.9214 52.3225H43.4114C43.2488 50.7722 43.3239 48.0458 45.3496 46.0576C46.3505 45.0823 48.1006 44.4445 48.1132 44.432L48.2382 44.3945H48.5258L48.6259 44.432C49.6805 44.7385 50.6428 45.3013 51.427 46.0702C53.4533 48.0834 53.5278 50.797 53.3653 52.3351H59.8806L54.5535 45.8701C54.4271 45.7139 54.3673 45.5141 54.3872 45.3142C54.407 45.1142 54.5049 44.9301 54.6595 44.8018C54.8142 44.6735 55.0132 44.6113 55.2134 44.6287C55.4136 44.6461 55.5988 44.7417 55.729 44.8948L61.7688 52.1852C61.8886 52.3312 61.9646 52.508 61.9883 52.6954C62.0119 52.8827 61.9822 53.0729 61.9024 53.2441C61.8227 53.4152 61.6963 53.5604 61.5377 53.6629C61.3792 53.7654 61.1948 53.821 61.006 53.8233L61.0057 53.8234Z" fill="white"/>
<path d="M40.8594 53.8228C40.7331 53.8251 40.6082 53.7949 40.4968 53.7353C40.3218 53.6383 40.1921 53.4763 40.1359 53.2843C40.0797 53.0923 40.1015 52.8859 40.1966 52.7099C40.5717 52.0222 40.6468 51.2343 40.3967 50.384C40.184 49.6462 39.7965 49.071 39.2337 48.6834C39.1516 48.6259 39.0816 48.5528 39.0278 48.4683C38.9739 48.3838 38.9372 48.2894 38.9198 48.1907C38.9024 48.092 38.9046 47.9909 38.9263 47.893C38.948 47.7952 38.9887 47.7026 39.0462 47.6204C39.1036 47.5383 39.1767 47.4684 39.2613 47.4145C39.3458 47.3606 39.4401 47.324 39.5388 47.3065C39.6375 47.2891 39.7386 47.2913 39.8365 47.313C39.9344 47.3347 40.027 47.3754 40.1091 47.4329C40.9749 48.0452 41.5953 48.945 41.8598 49.9719C42.1099 50.8348 42.2475 52.1478 41.5347 53.4483C41.4624 53.5622 41.3627 53.6561 41.2448 53.7215C41.1268 53.787 40.9943 53.8218 40.8594 53.8228Z" fill="white"/>
<path d="M55.4397 53.4346C54.7143 52.1217 54.8645 50.8211 55.102 49.9582C55.4146 48.8704 56.0024 48.0199 56.8527 47.4192C56.9348 47.3617 57.0275 47.321 57.1253 47.2993C57.2232 47.2776 57.3243 47.2754 57.423 47.2929C57.5217 47.3103 57.616 47.347 57.7006 47.4008C57.7851 47.4547 57.8582 47.5247 57.9156 47.6068C57.9731 47.6889 58.0139 47.7815 58.0355 47.8794C58.0572 47.9772 58.0594 48.0784 58.042 48.1771C58.0246 48.2758 57.9879 48.3701 57.934 48.4546C57.8802 48.5391 57.8102 48.6122 57.7281 48.6697C57.1653 49.0574 56.7777 49.6326 56.5651 50.3703C56.3276 51.2331 56.3901 52.0085 56.7652 52.6962L56.1025 53.0713L55.4397 53.4346Z" fill="white"/>
<path d="M48.3885 38.88C46.3256 38.88 44.3745 37.7795 42.8864 35.7787C41.5166 33.9281 40.768 31.6912 40.748 29.3888C40.748 25.0496 43.812 22.1484 48.3885 22.1484C50.5644 22.1484 52.4277 22.7362 53.7656 23.8617C55.2412 25.0997 56.029 26.9134 56.029 29.1262C56.029 33.728 52.7653 38.88 48.3885 38.88ZM48.3885 23.6615C45.4374 23.6615 42.2737 25.1621 42.2737 29.3887C42.3036 31.3647 42.9458 33.2828 44.1119 34.8783C45.2998 36.479 46.8255 37.3668 48.3885 37.3668C49.9388 37.3668 51.4525 36.4414 52.6652 34.7658C53.8157 33.1526 54.5159 31.0519 54.5159 29.1384C54.516 25.6999 52.2276 23.6621 48.3885 23.6621V23.6615Z" fill="white"/>
<path d="M54.5399 26.5627C54.4067 26.5614 54.276 26.5264 54.1601 26.4607C54.0441 26.3951 53.9468 26.3011 53.8772 26.1876C53.8269 26.1014 53.7942 26.0062 53.7809 25.9074C53.7675 25.8086 53.7738 25.7081 53.7994 25.6117C53.8249 25.5153 53.8693 25.4249 53.9298 25.3457C53.9904 25.2665 54.066 25.2 54.1523 25.15C55.4278 24.3993 56.2406 23.0857 56.2651 21.7358V21.6983C56.2654 21.2426 56.1511 20.7942 55.9326 20.3943C55.7142 19.9944 55.3987 19.6558 55.0151 19.4099C54.6443 19.1585 54.216 19.005 53.77 18.9634C53.3239 18.9219 52.8747 18.9938 52.4638 19.1723L52.4394 19.1845C52.4272 19.1845 52.415 19.1967 52.402 19.1967L52.3775 19.2212L52.315 19.2586C51.0021 19.8714 50.1267 21.3216 50.0891 22.9351C50.0836 23.1345 50.0011 23.324 49.8589 23.4639C49.7167 23.6038 49.5258 23.6832 49.3263 23.6854H49.3141C49.112 23.6817 48.9196 23.5981 48.7789 23.4531C48.6381 23.3081 48.5603 23.1133 48.5625 22.9112C48.6126 20.7228 49.763 18.8097 51.5887 17.8967C51.6722 17.847 51.7601 17.8052 51.8513 17.7717C52.4917 17.4953 53.1911 17.3836 53.8858 17.4469C54.5804 17.5103 55.2481 17.7466 55.8279 18.1344C56.4219 18.5205 56.9102 19.0486 57.2487 19.671C57.5871 20.2934 57.765 20.9903 57.7662 21.6988V21.7363C57.7418 23.637 56.6408 25.4377 54.9026 26.4507C54.7963 26.5249 54.6695 26.564 54.5399 26.5627Z" fill="white"/>
<path d="M52.6263 32.2658C52.1815 32.2648 51.7378 32.2229 51.3007 32.1408C50.5751 31.9979 49.878 31.7359 49.2378 31.3656C48.556 30.972 47.9571 30.4496 47.4746 29.8275C46.9898 29.2096 46.3751 28.7058 45.6739 28.3519C44.5941 27.8161 43.3672 27.6534 42.1851 27.8893C41.9864 27.9251 41.7816 27.8806 41.6156 27.7657C41.4497 27.6508 41.336 27.4747 41.2996 27.2761C41.2632 27.0776 41.307 26.8727 41.4214 26.7063C41.5358 26.54 41.7115 26.4258 41.9099 26.3887C43.4195 26.0951 44.9837 26.306 46.3616 26.9889C47.2568 27.4434 48.0454 28.0827 48.6751 28.8646C49.0427 29.3329 49.4918 29.7311 50.0006 30.0402C50.5021 30.3267 51.0469 30.5294 51.6137 30.6404C52.5845 30.8255 53.5872 30.7434 54.5149 30.4028C54.6089 30.3665 54.7092 30.3493 54.8099 30.3522C54.9106 30.355 55.0097 30.3779 55.1015 30.4194C55.1933 30.4609 55.2759 30.5203 55.3446 30.5941C55.4132 30.6678 55.4665 30.7545 55.5013 30.849C55.5361 30.9436 55.5517 31.0441 55.5473 31.1447C55.5429 31.2454 55.5185 31.3442 55.4756 31.4353C55.4326 31.5264 55.372 31.6081 55.2972 31.6756C55.2224 31.7431 55.1349 31.795 55.0398 31.8283C54.2677 32.1163 53.4504 32.2645 52.6263 32.2658Z" fill="white"/>
</g>
<defs>
<clipPath id="clip0_40_2620">
<rect width="64" height="64" fill="white" transform="translate(16 16)"/>
</clipPath>
</defs>
</svg>
